<svg width="1100" height="750" xmlns="http://www.w3.org/2000/svg" xmlns:sodipodi="http://sodipodi.sourceforge.net/DTD/sodipodi-0.dtd" xmlns:inkscape="http://www.inkscape.org/namespaces/inkscape" xml:space="preserve" version="1.1">
 <metadata id="metadata8">image/svg+xml</metadata>

 <g>
  <title>Layer 1</title>
  <g transform="matrix(1.33333 0 0 -1.33333 0 1440)"   id="g10">
   <g id="g12">
    <path fill="#ffa200" fill-rule="nonzero" id="path14" d="m555.36969,1062.40618l0,0l-259.384,0l0,-191.243l49.964,0l0,141.279l234.402,0l205.329,0l0,49.964l-230.311,0z"/>
   </g>
   <g id="g16">
    <path fill="#ffa200" fill-rule="nonzero" id="path18" d="m525.79193,843.22753l-259.758,0l0.505,219.179l-247.283,0l0,-267.02l49.964,0l0,217.056l147.239,0l-0.504,-219.179l309.837,0l0,49.964z"/>
   </g>
   <g id="g20">
    <path fill="#ffa200" fill-rule="nonzero" id="path22" d="m558.03076,793.26372l230.041,0l0,157.401l-182.738,0l0,30.455l-49.964,0l0,-80.418l182.738,0l0,-57.474l-180.077,0l0,-49.964z"/>
   </g>
   <g font-weight="bold" font-size="188.742px" font-family="'AmbitBold'" fill="#1a1a1a" fill-rule="nonzero" id="text26" transform="matrix(1 0 0 -1 153.547 364.826)" aria-label="ALLISM">
    <path id="path32" d="m-33.2804,-278.7001l-55.47982,0l-8.75512,25.0673l-35.66561,0l50.96403,-137.59366l42.30106,0l50.96403,137.59366l-35.6656,0l-8.66297,-25.0673zm-46.63254,-25.52809l37.6931,0l-18.80047,-54.74255l-18.89263,54.74255z"/>
    <path id="path34" d="m32.14052,-391.22646l35.48128,0l0,110.77534l62.29961,0l0,26.81832l-97.78089,0l0,-137.59366z"/>
    <path id="path36" d="m154.63382,-391.22646l35.48128,0l0,110.77534l62.29961,0l0,26.81832l-97.78089,0l0,-137.59366z"/>
    <path id="path38" d="m277.1271,-391.22646l35.48129,0l0,137.59366l-35.48129,0l0,-137.59366z"/>
    <path id="path40" d="m447.24469,-386.89498l0,29.1223q-11.33558,-5.06875 -22.1182,-7.64921q-10.78263,-2.58045 -20.36718,-2.58045q-12.71797,0 -18.80048,3.50204q-6.0825,3.50205 -6.0825,10.87479q0,5.52955 4.055,8.66296q4.14717,3.04125 14.92979,5.25307l15.11411,3.04126q22.94763,4.60796 32.62435,14.00819q9.67671,9.40024 9.67671,26.72617q0,22.76331 -13.5474,33.91457q-13.45524,11.05911 -41.19515,11.05911q-13.08661,0 -26.26537,-2.4883q-13.17876,-2.4883 -26.35753,-7.37274l0,-29.95173q13.17877,7.0041 25.43594,10.59831q12.34933,3.50205 23.77707,3.50205q11.61205,0 17.78672,-3.87069q6.17466,-3.87069 6.17466,-11.0591q0,-6.45115 -4.23932,-9.9532q-4.14716,-3.50204 -16.68081,-6.26682l-13.73172,-3.04125q-20.64366,-4.42364 -30.22821,-14.10036q-9.4924,-9.67671 -9.4924,-26.08105q0,-20.55149 13.27093,-31.61059q13.27092,-11.05911 38.1539,-11.05911q11.33558,0 23.31627,1.75103q11.98069,1.65886 24.79082,5.06875z"/>
    <path id="path42" d="m494.55743,-391.22646l45.158,0l31.33412,73.63519l31.51844,-73.63519l45.06584,0l0,137.59366l-33.54594,0l0,-100.63783l-31.70276,74.18815l-22.48684,0l-31.70276,-74.18815l0,100.63783l-33.6381,0l0,-137.59366z"/>
   </g>
   <g font-weight="500" font-size="60.2103px" font-family="'AzoSans Md'" fill="#1a1a1a" fill-rule="nonzero" id="text30" transform="matrix(1 0 0 -1 153.361 287.603)" aria-label="CONSTRUCTION SERVICES">
    <path id="path45" d="m-95.32452,-294.14539l0,6.2621q-2.99875,-2.79296 -6.4091,-4.17474q-3.38095,-1.38177 -7.2029,-1.38177q-7.52628,0 -11.52462,4.61573q-3.99834,4.58633 -3.99834,13.2886q0,8.67287 3.99834,13.2886q3.99834,4.58633 11.52462,4.58633q3.82195,0 7.2029,-1.38178q3.41034,-1.38178 6.4091,-4.17474l0,6.20331q-3.11635,2.11677 -6.6149,3.17515q-3.46915,1.05839 -7.34989,1.05839q-9.96645,0 -15.69937,-6.08571q-5.73291,-6.11511 -5.73291,-16.66955q0,-10.58384 5.73291,-16.66955q5.73292,-6.11511 15.69937,-6.11511q3.93954,0 7.40869,1.05838q3.49855,1.02899 6.5561,3.11636z"/>
    <path id="path47" d="m-69.37388,-293.4986q-6.4679,0 -10.28984,4.82152q-3.79255,4.82153 -3.79255,13.14161q0,8.29067 3.79255,13.1122q3.82194,4.82153 10.28984,4.82153q6.46791,0 10.23105,-4.82153q3.79254,-4.82153 3.79254,-13.1122q0,-8.32008 -3.79254,-13.14161q-3.76314,-4.82152 -10.23105,-4.82152zm0,-4.82153q9.23146,0 14.75858,6.20331q5.52712,6.1739 5.52712,16.58135q0,10.37804 -5.52712,16.58135q-5.52712,6.17391 -14.75858,6.17391q-9.26086,0 -14.81738,-6.17391q-5.52711,-6.17391 -5.52711,-16.58135q0,-10.40745 5.52711,-16.58135q5.55652,-6.20331 14.81738,-6.20331z"/>
    <path id="path49" d="m-37.81756,-297.52634l7.99668,0l19.46251,36.72005l0,-36.72005l5.76231,0l0,43.89354l-7.99668,0l-19.46251,-36.72005l0,36.72005l-5.76231,0l0,-43.89354z"/>
    <path id="path51" d="m35.45907,-296.08577l0,5.79172q-3.38095,-1.61698 -6.3797,-2.41077q-2.99876,-0.79378 -5.79172,-0.79378q-4.85093,0 -7.49689,1.88157q-2.61656,1.88157 -2.61656,5.35072q0,2.91055 1.73458,4.40993q1.76397,1.46998 6.6443,2.38137l3.58674,0.73498q6.6443,1.26419 9.79006,4.46874q3.17515,3.17515 3.17515,8.52587q0,6.37971 -4.29234,9.67246q-4.26293,3.29275 -12.52421,3.29275q-3.11635,0 -6.6443,-0.70559q-3.49855,-0.70559 -7.26169,-2.08737l0,-6.11511q3.61615,2.02857 7.08529,3.05755q3.46915,1.02899 6.8207,1.02899q5.08613,0 7.84968,-1.99917q2.76356,-1.99917 2.76356,-5.70352q0,-3.23395 -1.99917,-5.05672q-1.96977,-1.82277 -6.4973,-2.73416l-3.61615,-0.70559q-6.6443,-1.32298 -9.61365,-4.14534q-2.96936,-2.82236 -2.96936,-7.84968q0,-5.82111 4.08654,-9.17266q4.11594,-3.35155 11.31883,-3.35155q3.08696,0 6.29151,0.55859q3.20455,0.55859 6.5561,1.67577z"/>
    <path id="path53" d="m37.32041,-297.52634l37.13165,0l0,4.99792l-15.58177,0l0,38.89562l-5.96811,0l0,-38.89562l-15.58177,0l0,-4.99792z"/>
    <path id="path55" d="m102.69539,-274.21249q1.91097,0.64679 3.70435,2.76356q1.82277,2.11677 3.64554,5.82111l6.02691,11.99502l-6.3797,0l-5.61532,-11.26003q-2.17557,-4.40994 -4.23354,-5.85051q-2.02857,-1.44058 -5.55651,-1.44058l-6.46791,0l0,18.55112l-5.93871,0l0,-43.89354l13.4062,0q7.52629,0 11.23063,3.14575q3.70435,3.14575 3.70435,9.49606q0,4.14533 -1.94037,6.87949q-1.91097,2.73416 -5.58592,3.79255zm-14.87618,-18.43353l0,15.58177l7.46749,0q4.29234,0 6.46791,-1.96977q2.20496,-1.99917 2.20496,-5.85051q0,-3.85135 -2.20496,-5.79172q-2.17557,-1.96977 -6.46791,-1.96977l-7.46749,0z"/>
    <path id="path57" d="m120.34102,-297.52634l5.96811,0l0,26.6654q0,7.05589 2.55776,10.17225q2.55776,3.08695 8.29067,3.08695q5.70352,0 8.26128,-3.08695q2.55776,-3.11636 2.55776,-10.17225l0,-26.6654l5.96811,0l0,27.40039q0,8.58467 -4.26293,12.9652q-4.23354,4.38054 -12.52422,4.38054q-8.32007,0 -12.58301,-4.38054q-4.23353,-4.38053 -4.23353,-12.9652l0,-27.40039z"/>
    <path id="path59" d="m198.44153,-294.14539l0,6.2621q-2.99875,-2.79296 -6.4091,-4.17474q-3.38095,-1.38177 -7.20289,-1.38177q-7.52629,0 -11.52463,4.61573q-3.99834,4.58633 -3.99834,13.2886q0,8.67287 3.99834,13.2886q3.99834,4.58633 11.52463,4.58633q3.82194,0 7.20289,-1.38178q3.41035,-1.38178 6.4091,-4.17474l0,6.20331q-3.11635,2.11677 -6.6149,3.17515q-3.46915,1.05839 -7.34989,1.05839q-9.96645,0 -15.69936,-6.08571q-5.73292,-6.11511 -5.73292,-16.66955q0,-10.58384 5.73292,-16.66955q5.73291,-6.11511 15.69936,-6.11511q3.93954,0 7.40869,1.05838q3.49855,1.02899 6.5561,3.11636z"/>
    <path id="path61" d="m200.49032,-297.52634l37.13164,0l0,4.99792l-15.58176,0l0,38.89562l-5.96811,0l0,-38.89562l-15.58177,0l0,-4.99792z"/>
    <path id="path63" d="m245.05042,-297.52634l5.93872,0l0,43.89354l-5.93872,0l0,-43.89354z"/>
    <path id="path65" d="m279.36418,-293.4986q-6.46791,0 -10.28985,4.82152q-3.79254,4.82153 -3.79254,13.14161q0,8.29067 3.79254,13.1122q3.82194,4.82153 10.28985,4.82153q6.4679,0 10.23104,-4.82153q3.79255,-4.82153 3.79255,-13.1122q0,-8.32008 -3.79255,-13.14161q-3.76314,-4.82152 -10.23104,-4.82152zm0,-4.82153q9.23146,0 14.75858,6.20331q5.52711,6.1739 5.52711,16.58135q0,10.37804 -5.52711,16.58135q-5.52712,6.17391 -14.75858,6.17391q-9.26086,0 -14.81738,-6.17391q-5.52712,-6.17391 -5.52712,-16.58135q0,-10.40745 5.52712,-16.58135q5.55652,-6.20331 14.81738,-6.20331z"/>
    <path id="path67" d="m310.92048,-297.52634l7.99668,0l19.46251,36.72005l0,-36.72005l5.76231,0l0,43.89354l-7.99668,0l-19.46251,-36.72005l0,36.72005l-5.76231,0l0,-43.89354z"/>
    <path id="path69" d="m398.64761,-296.08577l0,5.79172q-3.38095,-1.61698 -6.37971,-2.41077q-2.99875,-0.79378 -5.79171,-0.79378q-4.85093,0 -7.49689,1.88157q-2.61656,1.88157 -2.61656,5.35072q0,2.91055 1.73457,4.40993q1.76398,1.46998 6.64431,2.38137l3.58674,0.73498q6.6443,1.26419 9.79006,4.46874q3.17515,3.17515 3.17515,8.52587q0,6.37971 -4.29234,9.67246q-4.26293,3.29275 -12.52421,3.29275q-3.11635,0 -6.6443,-0.70559q-3.49855,-0.70559 -7.26169,-2.08737l0,-6.11511q3.61614,2.02857 7.08529,3.05755q3.46915,1.02899 6.8207,1.02899q5.08612,0 7.84968,-1.99917q2.76356,-1.99917 2.76356,-5.70352q0,-3.23395 -1.99917,-5.05672q-1.96977,-1.82277 -6.4973,-2.73416l-3.61615,-0.70559q-6.6443,-1.32298 -9.61365,-4.14534q-2.96936,-2.82236 -2.96936,-7.84968q0,-5.82111 4.08654,-9.17266q4.11594,-3.35155 11.31883,-3.35155q3.08695,0 6.29151,0.55859q3.20455,0.55859 6.5561,1.67577z"/>
    <path id="path71" d="m406.59467,-297.52634l27.75319,0l0,4.99792l-21.81447,0l0,12.99461l20.90308,0l0,4.99792l-20.90308,0l0,15.90516l22.34366,0l0,4.99793l-28.28238,0l0,-43.89354z"/>
    <path id="path73" d="m460.88649,-274.21249q1.91097,0.64679 3.70435,2.76356q1.82277,2.11677 3.64554,5.82111l6.02691,11.99502l-6.3797,0l-5.61532,-11.26003q-2.17557,-4.40994 -4.23354,-5.85051q-2.02856,-1.44058 -5.55651,-1.44058l-6.46791,0l0,18.55112l-5.93871,0l0,-43.89354l13.4062,0q7.52629,0 11.23064,3.14575q3.70434,3.14575 3.70434,9.49606q0,4.14533 -1.94037,6.87949q-1.91097,2.73416 -5.58592,3.79255zm-14.87618,-18.43353l0,15.58177l7.46749,0q4.29234,0 6.46791,-1.96977q2.20496,-1.99917 2.20496,-5.85051q0,-3.85135 -2.20496,-5.79172q-2.17557,-1.96977 -6.46791,-1.96977l-7.46749,0z"/>
    <path id="path75" d="m490.52709,-253.6328l-16.75775,-43.89354l6.20331,0l13.90599,36.95524l13.93539,-36.95524l6.17391,0l-16.72835,43.89354l-6.7325,0z"/>
    <path id="path77" d="m520.51252,-297.52634l5.93871,0l0,43.89354l-5.93871,0l0,-43.89354z"/>
    <path id="path79" d="m569.87885,-294.14539l0,6.2621q-2.99876,-2.79296 -6.4091,-4.17474q-3.38095,-1.38177 -7.2029,-1.38177q-7.52628,0 -11.52462,4.61573q-3.99834,4.58633 -3.99834,13.2886q0,8.67287 3.99834,13.2886q3.99834,4.58633 11.52462,4.58633q3.82195,0 7.2029,-1.38178q3.41034,-1.38178 6.4091,-4.17474l0,6.20331q-3.11635,2.11677 -6.6149,3.17515q-3.46915,1.05839 -7.34989,1.05839q-9.96645,0 -15.69937,-6.08571q-5.73291,-6.11511 -5.73291,-16.66955q0,-10.58384 5.73291,-16.66955q5.73292,-6.11511 15.69937,-6.11511q3.93954,0 7.40869,1.05838q3.49855,1.02899 6.5561,3.11636z"/>
    <path id="path81" d="m578.01338,-297.52634l27.75318,0l0,4.99792l-21.81447,0l0,12.99461l20.90308,0l0,4.99792l-20.90308,0l0,15.90516l22.34366,0l0,4.99793l-28.28237,0l0,-43.89354z"/>
    <path id="path83" d="m637.80291,-296.08577l0,5.79172q-3.38095,-1.61698 -6.3797,-2.41077q-2.99876,-0.79378 -5.79172,-0.79378q-4.85092,0 -7.49688,1.88157q-2.61657,1.88157 -2.61657,5.35072q0,2.91055 1.73458,4.40993q1.76397,1.46998 6.6443,2.38137l3.58675,0.73498q6.6443,1.26419 9.79005,4.46874q3.17515,3.17515 3.17515,8.52587q0,6.37971 -4.29233,9.67246q-4.26294,3.29275 -12.52422,3.29275q-3.11635,0 -6.6443,-0.70559q-3.49855,-0.70559 -7.26169,-2.08737l0,-6.11511q3.61615,2.02857 7.08529,3.05755q3.46915,1.02899 6.8207,1.02899q5.08613,0 7.84969,-1.99917q2.76355,-1.99917 2.76355,-5.70352q0,-3.23395 -1.99917,-5.05672q-1.96977,-1.82277 -6.4973,-2.73416l-3.61614,-0.70559q-6.64431,-1.32298 -9.61366,-4.14534q-2.96936,-2.82236 -2.96936,-7.84968q0,-5.82111 4.08654,-9.17266q4.11594,-3.35155 11.31883,-3.35155q3.08696,0 6.29151,0.55859q3.20455,0.55859 6.5561,1.67577z"/>
   </g>
  </g>
 </g>
</svg>